<svg xmlns="http://www.w3.org/2000/svg" width="36" height="25.2" viewBox="0 0 36 25.2">
  <path id="Icon_awesome-users" data-name="Icon awesome-users" d="M5.4,13.05a3.6,3.6,0,1,0-3.6-3.6A3.6,3.6,0,0,0,5.4,13.05Zm25.2,0A3.6,3.6,0,1,0,27,9.45,3.6,3.6,0,0,0,30.6,13.05Zm1.8,1.8H28.8A3.589,3.589,0,0,0,26.263,15.9a8.228,8.228,0,0,1,4.224,6.154H34.2a1.8,1.8,0,0,0,1.8-1.8v-1.8A3.6,3.6,0,0,0,32.4,14.85Zm-14.4,0a6.3,6.3,0,1,0-6.3-6.3A6.3,6.3,0,0,0,18,14.85Zm4.32,1.8h-.467a8.7,8.7,0,0,1-7.706,0H13.68A6.482,6.482,0,0,0,7.2,23.13v1.62a2.7,2.7,0,0,0,2.7,2.7H26.1a2.7,2.7,0,0,0,2.7-2.7V23.13A6.482,6.482,0,0,0,22.32,16.65ZM9.737,15.9A3.589,3.589,0,0,0,7.2,14.85H3.6A3.6,3.6,0,0,0,0,18.45v1.8a1.8,1.8,0,0,0,1.8,1.8H5.507A8.249,8.249,0,0,1,9.737,15.9Z" transform="translate(0 -2.25)" fill="#fff"/>
</svg>
