<svg xmlns="http://www.w3.org/2000/svg" width="32.4" height="36" viewBox="0 0 32.4 36">
  <path id="Icon_material-perm-contact-calendar" data-name="Icon material-perm-contact-calendar" d="M33.3,5.1H31.5V1.5H27.9V5.1H13.5V1.5H9.9V5.1H8.1A3.6,3.6,0,0,0,4.5,8.7V33.9a3.6,3.6,0,0,0,3.6,3.6H33.3a3.611,3.611,0,0,0,3.6-3.6V8.7A3.611,3.611,0,0,0,33.3,5.1ZM20.7,10.5a5.4,5.4,0,1,1-5.4,5.4A5.393,5.393,0,0,1,20.7,10.5ZM31.5,32.1H9.9V30.3c0-3.6,7.2-5.58,10.8-5.58S31.5,26.7,31.5,30.3Z" transform="translate(-4.5 -1.5)" fill="#fff"/>
</svg>
