<svg xmlns="http://www.w3.org/2000/svg" width="23.857" height="23.852" viewBox="0 0 23.857 23.852">
  <path id="Icon_ionic-ios-globe" data-name="Icon ionic-ios-globe" d="M15.3,3.375h-.04a11.926,11.926,0,0,0,.006,23.852h.04A11.926,11.926,0,1,0,15.3,3.375ZM25.633,14.5H21.183a22.579,22.579,0,0,0-.562-4.369,17.467,17.467,0,0,0,2.85-1.2A10.272,10.272,0,0,1,25.633,14.5ZM14.5,14.5H10.955a20.38,20.38,0,0,1,.5-3.962,17.444,17.444,0,0,0,3.039.407Zm0,1.605v3.549a17.518,17.518,0,0,0-3.039.407,20.377,20.377,0,0,1-.5-3.956Zm1.605,0h3.515a20.26,20.26,0,0,1-.5,3.95,17.114,17.114,0,0,0-3.01-.4Zm0-1.605V10.943a17.518,17.518,0,0,0,3.01-.4,20.319,20.319,0,0,1,.5,3.956Zm6.273-6.76a15.928,15.928,0,0,1-2.179.889A11.838,11.838,0,0,0,18.678,5.5,10.375,10.375,0,0,1,22.376,7.738Zm-3.692,1.3a16.136,16.136,0,0,1-2.58.344V5.175A6.947,6.947,0,0,1,18.684,9.04ZM14.5,5.152V9.378a15.858,15.858,0,0,1-2.609-.35A6.944,6.944,0,0,1,14.5,5.152Zm-2.614.367a11.932,11.932,0,0,0-1.508,3.1,16.286,16.286,0,0,1-2.15-.883A10.22,10.22,0,0,1,11.884,5.519ZM7.13,8.931a17.12,17.12,0,0,0,2.821,1.193,21.669,21.669,0,0,0-.562,4.369H4.975A10.219,10.219,0,0,1,7.13,8.931ZM4.969,16.1H9.384a22.521,22.521,0,0,0,.562,4.369,18.165,18.165,0,0,0-2.821,1.193A10.274,10.274,0,0,1,4.969,16.1Zm3.251,6.76a16.046,16.046,0,0,1,2.156-.883,11.974,11.974,0,0,0,1.508,3.108A10.474,10.474,0,0,1,8.22,22.863Zm3.669-1.3a15.941,15.941,0,0,1,2.609-.35v4.231A6.933,6.933,0,0,1,11.889,21.568ZM16.1,25.426V21.212a16.136,16.136,0,0,1,2.58.344A6.944,6.944,0,0,1,16.1,25.426Zm2.58-.327A11.838,11.838,0,0,0,20.2,21.975a15.666,15.666,0,0,1,2.179.894A10.494,10.494,0,0,1,18.684,25.1Zm4.788-3.429a17.466,17.466,0,0,0-2.85-1.2,22.461,22.461,0,0,0,.562-4.363h4.449A10.227,10.227,0,0,1,23.471,21.671Z" transform="translate(-3.375 -3.375)" fill="#202188"/>
</svg>
