<svg xmlns="http://www.w3.org/2000/svg" width="1930.44" height="1014.295" viewBox="0 0 1930.44 1014.295">
  <g id="Grey_Background" data-name="Grey Background" transform="translate(9 -1627.205)">
    <path id="Path_50238" data-name="Path 50238" d="M0,442.694V0S89.784,84.41,411.647,72.334c19.529-.733,100.775-6.029,121.089-7.388,278.782-18.658,609.546-36.079,748.606-43.186,42.521-2.173,92.947-3.933,134.167-2.986,123.045,2.826,383.448,18.968,505.477,102.74,1.021,165.59,0,824.765,0,824.765H0Z" transform="translate(0 1695.222)" fill="#efeff0"/>
    <g id="Group_2202" data-name="Group 2202" transform="translate(-22.208 -3079.211)" opacity="0.791">
      <path id="Path_50054" data-name="Path 50054" d="M0,0C18.652,24.926,37.3,49.851,55.956,74.438Q83.934,43.154,111.912,11.7,55.956,6.613,0,0Z" transform="translate(29.953 4706.416) rotate(13)" fill="#efeff0" opacity="0.6"/>
      <path id="Path_50055" data-name="Path 50055" d="M111.912,71.725Q83.934,36.117,55.956,0C37.3,21.535,18.652,42.73,0,63.925Q55.956,68.758,111.912,71.725Z" transform="translate(167.626 4751.409) rotate(5)" fill="#efeff0" opacity="0.6"/>
      <path id="Path_50056" data-name="Path 50056" d="M0,0C18.652,23.739,37.3,47.139,55.956,70.708Q83.934,37.643,111.912,4.239,55.956,2.713,0,0Z" transform="matrix(0.998, 0.07, -0.07, 0.998, 312.206, 4767.528)" fill="#efeff0" opacity="0.6"/>
    </g>
  </g>
</svg>
