<svg xmlns="http://www.w3.org/2000/svg" width="24.487" height="24.487" viewBox="0 0 24.487 24.487">
  <path id="Path_50471" data-name="Path 50471" d="M12.244,2.177a37.542,37.542,0,0,1,4.9.136,6.31,6.31,0,0,1,2.313.408,4.778,4.778,0,0,1,2.313,2.313,6.31,6.31,0,0,1,.408,2.313c0,1.224.136,1.632.136,4.9a37.541,37.541,0,0,1-.136,4.9,6.31,6.31,0,0,1-.408,2.313,4.778,4.778,0,0,1-2.313,2.313,6.31,6.31,0,0,1-2.313.408c-1.224,0-1.632.136-4.9.136a37.541,37.541,0,0,1-4.9-.136,6.31,6.31,0,0,1-2.313-.408,4.778,4.778,0,0,1-2.313-2.313,6.31,6.31,0,0,1-.408-2.313c0-1.224-.136-1.632-.136-4.9a37.542,37.542,0,0,1,.136-4.9,6.31,6.31,0,0,1,.408-2.313,4.886,4.886,0,0,1,.952-1.36,2.3,2.3,0,0,1,1.36-.952,6.31,6.31,0,0,1,2.313-.408,37.542,37.542,0,0,1,4.9-.136m0-2.177A40.2,40.2,0,0,0,7.21.136,8.4,8.4,0,0,0,4.217.68a5.326,5.326,0,0,0-2.177,1.36A5.326,5.326,0,0,0,.68,4.217,6.2,6.2,0,0,0,.136,7.21,40.2,40.2,0,0,0,0,12.244a40.2,40.2,0,0,0,.136,5.034A8.4,8.4,0,0,0,.68,20.27a5.326,5.326,0,0,0,1.36,2.177,5.326,5.326,0,0,0,2.177,1.36,8.4,8.4,0,0,0,2.993.544,40.2,40.2,0,0,0,5.034.136,40.2,40.2,0,0,0,5.034-.136,8.4,8.4,0,0,0,2.993-.544,5.708,5.708,0,0,0,3.537-3.537,8.4,8.4,0,0,0,.544-2.993c0-1.36.136-1.769.136-5.034a40.2,40.2,0,0,0-.136-5.034,8.4,8.4,0,0,0-.544-2.993,5.326,5.326,0,0,0-1.36-2.177A5.326,5.326,0,0,0,20.27.68,8.4,8.4,0,0,0,17.277.136,40.2,40.2,0,0,0,12.244,0m0,5.986a6.157,6.157,0,0,0-6.258,6.258,6.258,6.258,0,1,0,6.258-6.258m0,10.339a4.008,4.008,0,0,1-4.081-4.081,4.008,4.008,0,0,1,4.081-4.081,4.008,4.008,0,0,1,4.081,4.081,4.008,4.008,0,0,1-4.081,4.081m6.53-12.108a1.5,1.5,0,1,0,1.5,1.5,1.51,1.51,0,0,0-1.5-1.5" fill="#3d7841" fill-rule="evenodd"/>
</svg>
