<svg xmlns="http://www.w3.org/2000/svg" xmlns:xlink="http://www.w3.org/1999/xlink" width="29.891" height="28.732" viewBox="0 0 29.891 28.732">
  <defs>
    <clipPath id="clip-path">
      <rect id="Rectangle_3784" data-name="Rectangle 3784" width="29.891" height="28.732" fill="#fff"/>
    </clipPath>
  </defs>
  <g id="playground-icon" transform="translate(0)">
    <g id="Group_2217" data-name="Group 2217" transform="translate(0)" clip-path="url(#clip-path)">
      <path id="Path_25149" data-name="Path 25149" d="M28.987,342.887h-.339c0-.052-.043-.041-.066-.047a1.14,1.14,0,0,1-.422-.218c-.2-.154-.4-.305-.593-.46s-.386-.293-.578-.441-.358-.281-.536-.423c-.2-.163-.4-.329-.608-.49-.238-.187-.484-.364-.718-.556-.176-.144-.356-.283-.537-.422-.244-.187-.48-.385-.722-.574s-.483-.369-.721-.556c-.209-.164-.413-.333-.62-.5-.017-.013-.031-.038-.067-.021,0,.047,0,.1,0,.147q0,2.168,0,4.335c0,.047,0,.094,0,.141,0,.015-.019.028-.03.042a.6.6,0,0,0-.069-.008H20.417a.569.569,0,0,0-.068.008c-.01-.014-.029-.027-.03-.042,0-.047,0-.094,0-.141q0-2.98,0-5.96c0-.042,0-.085,0-.127a.066.066,0,0,0-.07-.072c-.042,0-.085,0-.127,0H9.807a.572.572,0,0,0-.147.008c0,.055,0,.105,0,.156q0,2.994,0,5.989c0,.038,0,.075,0,.113s-.006.054-.01.084c-.03,0-.053.006-.076.006H7.581a.4.4,0,0,1-.071-.014v-.16q0-1.7,0-3.4c0-.042,0-.085,0-.127a.043.043,0,0,0-.066-.026.351.351,0,0,0-.039.04l-.2.236-.365.439c-.075.09-.151.178-.226.267-.1.124-.211.248-.314.373-.125.151-.247.3-.373.454-.11.132-.223.261-.334.393-.132.157-.26.317-.392.474-.111.132-.227.258-.336.391-.124.152-.244.308-.363.464a.811.811,0,0,1-.191.162.5.5,0,0,1-.086.04c-.024-.007-.035.006-.042.027H2.034l-.136-.024-.063-.012-.048-.013a1.782,1.782,0,0,1-.666-.237,2.882,2.882,0,0,1-.381-.264,1.816,1.816,0,0,1-.254-.279,2.052,2.052,0,0,1-.4-.885c-.021-.115-.037-.232-.056-.348a.777.777,0,0,0,.01-.1c0-.15-.01-.3-.012-.449,0-.178,0-.356,0-.535,0-.036.01-.076-.023-.106V336.53c.035-.04.022-.089.023-.135q.007-.422.012-.844a.96.96,0,0,0-.007-.126c0-.009-.019-.017-.029-.025v-.085c.046-.01.039-.041.029-.073.008-.046.015-.092.024-.138.018-.1.033-.194.057-.289s.06-.177.085-.267a.869.869,0,0,1,.133-.255c.005-.008.009-.017.014-.024a2.362,2.362,0,0,1,.313-.41,2.67,2.67,0,0,1,.254-.193,1.828,1.828,0,0,1,.683-.316v0a1.928,1.928,0,0,1,.7-.052.587.587,0,0,0,.269-.009l.151-.017.024-.008c.055-.013.11-.023.164-.038a1.76,1.76,0,0,0,.934-.636c.137-.181.28-.358.414-.542.151-.206.323-.4.484-.594s.332-.416.5-.621c.133-.161.274-.317.409-.476q.285-.336.567-.674l.575-.687c.057-.068.114-.135.17-.2.1-.123.191-.252.3-.368a.886.886,0,0,0,.234-.612c0-.292,0-.583.005-.875q0-.861,0-1.721,0-.677,0-1.355a1.157,1.157,0,0,1,0-.127c0-.016.019-.03.029-.045.051,0,.1.008.153.008H22.235c.042,0,.085,0,.127,0a.186.186,0,0,0,.04-.01c.014.011.036.019.042.033a.212.212,0,0,1,0,.07c0,.32.008.64.008.959,0,.517.008,1.035-.023,1.552a1.073,1.073,0,0,0,.026.308,1.142,1.142,0,0,0,.16.372,1.045,1.045,0,0,0,.2.212c.114.1.237.18.354.272.2.156.392.315.591.47.251.195.505.384.756.579.139.108.273.224.412.332.187.146.378.288.566.434.077.06.148.128.225.188.184.143.371.282.555.424.246.191.49.385.735.578l.839.659c.264.207.528.413.791.621.164.13.326.264.489.394a.968.968,0,0,0,.136.095,1.172,1.172,0,0,1,.412.371.9.9,0,0,1,.184.48.3.3,0,0,0,.024.165v.085l-.02.143a.594.594,0,0,1-.1.3,1.047,1.047,0,0,1-.759.555l-.026.009-.142.022c0,.056,0,.107,0,.159q0,2.737,0,5.474,0,.12,0,.24a.4.4,0,0,0,.055.2.478.478,0,0,0,.152.163c.1.067.191.134.281.209s.194.174.287.265a.776.776,0,0,1,.249.486l.022.11v.254l-.02.089a.876.876,0,0,1-.235.5,1.045,1.045,0,0,1-.536.329.949.949,0,0,0-.113.048M22.45,329.638l0-.007.005.006c0,.028,0,.056,0,.084q0,2.745,0,5.491a.679.679,0,0,0,.015.154.187.187,0,0,0,.052.095c.113.1.229.19.346.284s.219.174.329.26c.08.063.162.124.242.184l.064-.079v-.054q0-2.682,0-5.364a.712.712,0,0,0-.006-.112.384.384,0,0,0-.148-.259c-.063-.047-.122-.1-.184-.147-.109-.088-.218-.176-.328-.263s-.22-.17-.331-.254a.19.19,0,0,0-.05-.019M3.817,335.325l-.009,0v.009l-.1.023-.009,0v.009l-.139.023-.049.011c-.1,0-.207.012-.31.012-.3,0-.593,0-.89,0-.032,0-.063,0-.1.008q0,2.63,0,5.245c0,.022,0,.045.006.075.27.005.532.012.795,0l.072-.011a.583.583,0,0,0,.405-.221c.148-.18.3-.354.454-.532.1-.114.187-.234.283-.348.156-.186.316-.368.473-.553.091-.108.176-.22.266-.328.123-.146.251-.288.373-.435.16-.193.316-.39.476-.583.116-.139.237-.275.355-.412.061-.071.12-.143.179-.215.109-.133.216-.266.326-.4s.248-.291.37-.438.221-.276.337-.409a.468.468,0,0,0,.123-.32c0-.188,0-.376,0-.565q0-1.624,0-3.249c0-.042,0-.085,0-.127a.175.175,0,0,0-.021-.05l0,0v.005l-.163.191c-.064.074-.129.146-.191.221-.131.157-.26.316-.391.474l-.178.213-.242.291c-.06.071-.121.14-.18.211-.119.143-.235.289-.355.431s-.232.267-.345.4c-.164.2-.323.4-.486.595a2.2,2.2,0,0,1-.615.537,2.234,2.234,0,0,1-.511.221m9.095-5.447a2.044,2.044,0,1,0,2.052-2.039,2.044,2.044,0,0,0-2.052,2.039m13.755,8.841a.5.5,0,0,0,.032-.239q0-2.647,0-5.295c0-.033,0-.066,0-.1a.244.244,0,0,0-.092-.2c-.026-.021-.05-.043-.076-.063-.113-.088-.228-.175-.34-.265-.16-.128-.318-.258-.477-.386a.3.3,0,0,0-.064-.028v.126q0,2.45,0,4.9c0,.184,0,.367,0,.551a.381.381,0,0,0,.137.309c.132.11.261.224.4.326.105.077.2.163.308.243.051.039.106.074.169.118" transform="translate(0 -314.154)" fill="#fff"/>
      <path id="Path_25150" data-name="Path 25150" d="M157.057.019a1.387,1.387,0,0,1,.656.254c.4.277.811.545,1.217.818l.587.4.733.5c.3.2.6.4.89.6.374.262.763.5,1.136.767.308.218.627.418.938.632q.6.412,1.2.819c.3.2.6.4.894.6s.61.413.915.619c.231.156.464.309.692.47a2.68,2.68,0,0,1,.312.26,1.033,1.033,0,0,1,.276.453.866.866,0,0,1-.121.753,1.287,1.287,0,0,1-.719.529l-.008,0v.008l-.1.025-.009,0v.009a1.918,1.918,0,0,1-.378.035h-9.141c-.066,0-.131,0-.2-.006-.045,0-.091-.009-.137-.009h-8.925l-.225,0-.234-.017-.03-.005-.164-.029-.025-.008a.926.926,0,0,1-.423-.172,1.056,1.056,0,0,1-.475-.861,1.5,1.5,0,0,1,.035-.279.845.845,0,0,1,.248-.453,1.314,1.314,0,0,1,.315-.236c.263-.152.509-.33.761-.5.087-.058.168-.125.252-.188a.242.242,0,0,1,.034-.024,8.5,8.5,0,0,0,.767-.5c.072-.047.138-.1.211-.152.139-.09.28-.175.417-.268q.3-.2.587-.417c.062-.046.135-.075.2-.116.265-.169.514-.363.78-.531a1.815,1.815,0,0,1,.334-.219c.2-.146.413-.28.61-.436.041-.033.093-.051.137-.08q.257-.17.511-.343c.105-.072.208-.147.313-.219.239-.165.492-.308.728-.478.188-.137.384-.264.57-.4.042-.032.093-.051.138-.08.184-.12.366-.242.55-.362.241-.157.465-.341.715-.486a1.434,1.434,0,0,1,.292-.195c.1-.059.179-.135.274-.2a1.657,1.657,0,0,1,.546-.243l.008,0V.04l.139-.019L156.746,0h.17l.142.019" transform="translate(-141.885)" fill="#fff"/>
      <path id="Path_25151" data-name="Path 25151" d="M.026,866.681,0,866.71v-1.215c.033.03.023.069.023.106,0,.178,0,.356,0,.535,0,.15.009.3.012.449a.776.776,0,0,1-.01.1" transform="translate(0 -840.011)" fill="#fff"/>
      <path id="Path_25152" data-name="Path 25152" d="M0,721.565c.01.008.028.016.029.025a.96.96,0,0,1,.007.126q-.005.422-.012.844c0,.046.012.095-.023.135v-1.13" transform="translate(0 -700.319)" fill="#fff"/>
      <path id="Path_25153" data-name="Path 25153" d="M1014.334,641.957l.024-.033v.2a.3.3,0,0,1-.024-.165" transform="translate(-984.466 -623.023)" fill="#fff"/>
      <path id="Path_25154" data-name="Path 25154" d="M1014.531,651.69l-.02-.026.02-.143Z" transform="translate(-984.64 -632.337)" fill="#fff"/>
      <path id="Path_25155" data-name="Path 25155" d="M510.62.019,510.478,0h.17l-.027.019" transform="translate(-495.448)" fill="#fff"/>
      <path id="Path_25156" data-name="Path 25156" d="M63.33,975.033l.033-.025.136.025Z" transform="translate(-61.465 -946.301)" fill="#fff"/>
      <path id="Path_25157" data-name="Path 25157" d="M1014.439,929.814l.022-.031v.141l-.022-.11" transform="translate(-984.57 -902.407)" fill="#fff"/>
      <path id="Path_25158" data-name="Path 25158" d="M0,714.848l.029.039c.01.032.017.063-.029.074v-.113" transform="translate(0 -693.8)" fill="#fff"/>
      <path id="Path_25159" data-name="Path 25159" d="M1014.556,943.329l-.02-.024.02-.089Z" transform="translate(-984.664 -915.444)" fill="#fff"/>
      <path id="Path_25160" data-name="Path 25160" d="M501,0l-.083.021L500.883,0H501" transform="translate(-486.135)" fill="#fff"/>
      <path id="Path_25161" data-name="Path 25161" d="M142.055,974.867l.015.027h-.057c.006-.021.018-.034.042-.027" transform="translate(-137.832 -946.162)" fill="#fff"/>
      <path id="Path_25162" data-name="Path 25162" d="M693.152,974.117a.3.3,0,0,1-.052.009h-1.971a.3.3,0,0,1-.052-.009.627.627,0,0,1,.069-.008h1.939a.6.6,0,0,1,.069.008" transform="translate(-670.728 -945.427)" fill="#fff"/>
      <path id="Path_25163" data-name="Path 25163" d="M77.917,649.836l.27-.009a.589.589,0,0,1-.27.009" transform="translate(-75.623 -630.694)" fill="#fff"/>
      <path id="Path_25164" data-name="Path 25164" d="M101.97,902.29l.072-.011-.072.011" transform="translate(-98.968 -875.712)" fill="#fff"/>
      <path id="Path_25165" data-name="Path 25165" d="M119.123,720.91l-.049.011.049-.011" transform="translate(-115.568 -699.684)" fill="#fff"/>
      <path id="Path_25166" data-name="Path 25166" d="M60.725,974.158l-.048-.013.048.013" transform="translate(-58.89 -945.462)" fill="#fff"/>
      <path id="Path_25167" data-name="Path 25167" d="M92.2,648.964l.024-.008-.024.008" transform="translate(-89.482 -629.848)" fill="#fff"/>
      <path id="Path_25168" data-name="Path 25168" d="M984.467,685.367l-.026.009.026-.009" transform="translate(-955.455 -665.187)" fill="#fff"/>
      <path id="Path_25169" data-name="Path 25169" d="M129.321,718.887v.009l-.008,0v-.009Z" transform="translate(-125.504 -697.717)" fill="#fff"/>
      <path id="Path_25170" data-name="Path 25170" d="M125.476,719.826l0,.009-.009,0v-.009Z" transform="translate(-121.772 -698.628)" fill="#fff"/>
      <path id="Path_25171" data-name="Path 25171" d="M762.372,525.624h0l-.005-.006,0,.007" transform="translate(-739.922 -510.141)" fill="#fff"/>
      <path id="Path_25172" data-name="Path 25172" d="M253.768,590.2h0v-.005Z" transform="translate(-246.291 -572.816)" fill="#fff"/>
      <path id="Path_25173" data-name="Path 25173" d="M54.084,651.753v0Z" transform="translate(-52.491 -632.559)" fill="#fff"/>
      <path id="Path_25174" data-name="Path 25174" d="M183.174,289.316l.03.005-.03-.005" transform="translate(-177.781 -280.797)" fill="#fff"/>
      <path id="Path_25175" data-name="Path 25175" d="M176.725,288.063l.025.008-.025-.008" transform="translate(-171.522 -279.581)" fill="#fff"/>
      <path id="Path_25176" data-name="Path 25176" d="M837.489,289.033v-.009l.009,0,0,.009Z" transform="translate(-812.83 -280.514)" fill="#fff"/>
      <path id="Path_25177" data-name="Path 25177" d="M841.278,288.03v-.009l.008,0s0,.009,0,.009Z" transform="translate(-816.508 -279.542)" fill="#fff"/>
      <path id="Path_25178" data-name="Path 25178" d="M496.881,1.231V1.24l-.008,0s0-.008,0-.008Z" transform="translate(-482.242 -1.191)" fill="#fff"/>
    </g>
  </g>
</svg>
