<svg xmlns="http://www.w3.org/2000/svg" width="18.9" height="21" viewBox="0 0 18.9 21">
  <path id="Icon_material-perm-contact-calendar" data-name="Icon material-perm-contact-calendar" d="M21.3,3.6H20.25V1.5h-2.1V3.6H9.75V1.5H7.65V3.6H6.6A2.1,2.1,0,0,0,4.5,5.7V20.4a2.1,2.1,0,0,0,2.1,2.1H21.3a2.106,2.106,0,0,0,2.1-2.1V5.7A2.106,2.106,0,0,0,21.3,3.6ZM13.95,6.75A3.15,3.15,0,1,1,10.8,9.9,3.146,3.146,0,0,1,13.95,6.75Zm6.3,12.6H7.65V18.3c0-2.1,4.2-3.255,6.3-3.255s6.3,1.155,6.3,3.255Z" transform="translate(-4.5 -1.5)" fill="#fff"/>
</svg>
