<svg xmlns="http://www.w3.org/2000/svg" width="26.12" height="28.732" viewBox="0 0 26.12 28.732">
  <g id="gazebo-icon" transform="translate(0)">
    <g id="Group_2329" data-name="Group 2329" transform="translate(0 0)">
      <path id="Path_25732" data-name="Path 25732" d="M33.466,39.591H31.507V26.531h1.959a.653.653,0,0,0,.3-1.231l-8.62-5.224a.649.649,0,0,0-.3-.075H17.272a.649.649,0,0,0-.3.075L8.348,25.3a.653.653,0,0,0,.3,1.231h1.959v13.06H8.653A.653.653,0,0,0,8,40.244v2.612a.653.653,0,0,0,.653.653H33.466a.653.653,0,0,0,.653-.653V40.244a.653.653,0,0,0-.653-.653Zm-3.265,0H26.283V26.531H30.2Zm-5.224-13.06v13.06H17.142V26.531Zm-13.06,0h3.918v13.06H11.918Z" transform="translate(-7.999 -14.776)" fill="#fff"/>
      <path id="Path_25733" data-name="Path 25733" d="M36.653,7.917h6.53a.653.653,0,0,0,.408-1.163L40.327,4.142a.652.652,0,0,0-.816,0L36.245,6.754a.653.653,0,0,0,.408,1.163Z" transform="translate(-26.858 -3.999)" fill="#fff"/>
    </g>
  </g>
</svg>
