<svg xmlns="http://www.w3.org/2000/svg" width="18" height="16.875" viewBox="0 0 18 16.875">
  <path id="Icon_awesome-dog" data-name="Icon awesome-dog" d="M17.438,4.5h-2.25L14.936,4a1.125,1.125,0,0,0-1.006-.622H12.045l-.959-.959a.563.563,0,0,0-.96.4V8.081l4.5,1.607V8.438H15.75A2.25,2.25,0,0,0,18,6.188V5.063A.562.562,0,0,0,17.438,4.5ZM13.5,6.188a.563.563,0,1,1,.563-.562A.562.562,0,0,1,13.5,6.188ZM3.375,9A1.126,1.126,0,0,1,2.25,7.875a1.125,1.125,0,0,0-2.25,0,3.369,3.369,0,0,0,2.25,3.168v7.52a.562.562,0,0,0,.563.563h2.25a.562.562,0,0,0,.563-.562V14.625H11.25v3.938a.562.562,0,0,0,.563.563h2.25a.562.562,0,0,0,.563-.562v-7.68L9.353,9Z" transform="translate(0 -2.25)" fill="#202188"/>
</svg>
