<svg xmlns="http://www.w3.org/2000/svg" width="20.956" height="22.12" viewBox="0 0 20.956 22.12">
  <path id="Icon_material-location-city" data-name="Icon material-location-city" d="M18.471,13.478V6.493L14.978,3,11.485,6.493V8.821H4.5v16.3H25.456V13.478ZM9.157,22.792H6.828V20.463H9.157Zm0-4.657H6.828V15.806H9.157Zm0-4.657H6.828V11.15H9.157Zm6.985,9.314H13.814V20.463h2.328Zm0-4.657H13.814V15.806h2.328Zm0-4.657H13.814V11.15h2.328Zm0-4.657H13.814V6.493h2.328Zm6.985,13.971H20.8V20.463h2.328Zm0-4.657H20.8V15.806h2.328Z" transform="translate(-4.5 -3)" fill="#fff"/>
</svg>
