<svg xmlns="http://www.w3.org/2000/svg" width="22.896" height="22.896" viewBox="0 0 22.896 22.896">
  <path id="Icon_awesome-linkedin-in" data-name="Icon awesome-linkedin-in" d="M5.125,22.9H.378V7.61H5.125ZM2.749,5.525A2.762,2.762,0,1,1,5.5,2.75,2.772,2.772,0,0,1,2.749,5.525ZM22.891,22.9H18.155V15.455c0-1.773-.036-4.048-2.468-4.048-2.468,0-2.846,1.927-2.846,3.92V22.9H8.1V7.61h4.553V9.7h.066a4.988,4.988,0,0,1,4.491-2.469c4.8,0,5.687,3.164,5.687,7.273v8.4Z" transform="translate(0 -0.001)" fill="#327136"/>
</svg>
