<svg xmlns="http://www.w3.org/2000/svg" width="19.575" height="19.586" viewBox="0 0 19.575 19.586">
  <path id="Icons_amenities_softballs" d="M23.159,33.066a9.64,9.64,0,0,1-9.67-9.234,9.791,9.791,0,1,1,9.672,9.232Zm-5.642-9.594c.319.427.668.2,1.041.016a.681.681,0,0,1,.53-.011.518.518,0,0,1,.176.433c-.087.676-.014.725.668.533a2.261,2.261,0,0,1,.755.051c-.051.27-.1.541-.181.976.141.284.479.105.844.022a.717.717,0,0,1,.576.227c.062.073-.089.357-.176.53-.041.078-.162.114-.246.165.219.468.468.771,1.047.622.327-.084.641.1.514.5-.065.2-.333.341-.525.522.043.463.338.671.838.725.187.022.349.238.525.368-.168.16-.327.322-.5.471a.632.632,0,0,1-.219.07c.1.625.111.6.617.844.181.087.292.314.438.476-.184.133-.365.27-.554.392a.82.82,0,0,1-.252.051c.022.243.041.449.06.652a8.727,8.727,0,0,0,8.6-8.588c-.2-.016-.406-.035-.487-.041l-.565.782c-.192-.216-.368-.452-.579-.646a6.294,6.294,0,0,0-.576-.446c-.311.311-.525.525-.738.741-.146-.254-.276-.522-.441-.76s-.384-.473-.511-.625l-.836.6c-.108-.268-.2-.544-.33-.806-.141-.292-.306-.573-.387-.719-.441.16-.709.257-.974.352l-.13-.8c-.038-.241-.078-.481-.1-.614l-.912.189c-.027-.287-.06-.573-.076-.86-.014-.26,0-.519,0-.671h-.928c.005-.254-.008-.511.019-.763.032-.341.095-.679.146-1.017l-.227.1c-.252-.07-.5-.141-.755-.208a6.711,6.711,0,0,1,.235-.728,3.784,3.784,0,0,1,.3-.506c-.395-.151-.655-.252-.914-.349.127-.246.238-.5.381-.733a4.64,4.64,0,0,1,.4-.484c-3.825-.868-9.491,4.834-8.512,8.661.225-.179.354-.452.563-.644a.657.657,0,0,1,.557-.154c.127.051.173.33.227.517a1.8,1.8,0,0,1-.06.471,7.1,7.1,0,0,1,.674-.392c.235-.1.484-.168.728-.252l.243.755Zm1.06,1.539c-.046.065-.092.13-.135.195l-.671.444c-.108-.243-.211-.49-.325-.733-.087-.181-.187-.357-.254-.484-.311.3-.519.506-.725.709-.151-.246-.295-.5-.454-.738a3.886,3.886,0,0,0-.268-.341c-.211.3-.371.536-.533.768-.254-.243-.511-.484-.76-.722a8,8,0,0,0,1.3,3.873A8.57,8.57,0,0,0,22.1,32.038a1.853,1.853,0,0,0,.584-.16l-.963-.419c.138-.238.279-.476.411-.717.1-.176.192-.354.243-.452-.365-.1-.619-.168-.876-.235.076-.243.157-.487.225-.733.062-.219.108-.444.151-.622H20.93c.03-.273.065-.544.081-.817.014-.233,0-.465,0-.617l-.914.2c-.032-.27-.057-.541-.1-.811-.035-.235-.081-.468-.108-.617-.373.165-.63.279-.887.395-.062-.26-.114-.525-.189-.782-.065-.219-.16-.427-.243-.638Zm5.837-7.8c-.019.357.322.243.66.249a.727.727,0,0,1,.519.325c.049.081-.154.335-.276.484-.068.081-.2.108-.514.262.395.146.614.238.838.308.252.078.511.133.765.2-.114.252-.227.5-.395.876.146.027.373.081.6.111.27.038.544.054.814.081-.06.27-.119.541-.2.92.181,0,.419.008.657,0,.27-.011.538-.041.809-.06v.925c.157-.032.373-.068.582-.124.262-.07.517-.157.776-.235.062.254.122.509.211.876.114-.062.289-.157.465-.257.241-.138.476-.281.714-.425.111.262.219.525.341.82.287-.024.365-.149.246-.719a8.822,8.822,0,0,0-6.608-7.154,10.623,10.623,0,0,0-1.32-.214c.268.279.495.517.722.755-.219.176-.438.354-.752.606.081.049.225.124.357.211.23.146.454.3.682.452-.195.2-.387.406-.7.733Z" transform="translate(-13.478 -13.48)" fill="#fff"/>
</svg>
