<svg xmlns="http://www.w3.org/2000/svg" width="21" height="21" viewBox="0 0 21 21">
  <path id="Icon_awesome-fax" data-name="Icon awesome-fax" d="M2.625,5.25H1.313A1.313,1.313,0,0,0,0,6.563V19.688A1.313,1.313,0,0,0,1.313,21H2.625a1.313,1.313,0,0,0,1.312-1.312V6.563A1.313,1.313,0,0,0,2.625,5.25ZM19.688,6.563V3.168A1.313,1.313,0,0,0,19.3,2.24L17.447.384A1.313,1.313,0,0,0,16.519,0H6.563A1.313,1.313,0,0,0,5.25,1.313V19.688A1.313,1.313,0,0,0,6.563,21H19.688A1.313,1.313,0,0,0,21,19.688V7.875A1.313,1.313,0,0,0,19.688,6.563ZM11.813,17.719a.656.656,0,0,1-.656.656H9.844a.656.656,0,0,1-.656-.656V16.406a.656.656,0,0,1,.656-.656h1.313a.656.656,0,0,1,.656.656Zm0-5.25a.656.656,0,0,1-.656.656H9.844a.656.656,0,0,1-.656-.656V11.156a.656.656,0,0,1,.656-.656h1.313a.656.656,0,0,1,.656.656Zm5.25,5.25a.656.656,0,0,1-.656.656H15.094a.656.656,0,0,1-.656-.656V16.406a.656.656,0,0,1,.656-.656h1.313a.656.656,0,0,1,.656.656Zm0-5.25a.656.656,0,0,1-.656.656H15.094a.656.656,0,0,1-.656-.656V11.156a.656.656,0,0,1,.656-.656h1.313a.656.656,0,0,1,.656.656Zm.656-4.594H7.219V1.969H15.75V3.281a.656.656,0,0,0,.656.656h1.313Z" fill="#fff"/>
</svg>
