<svg id="basketball-icon" xmlns="http://www.w3.org/2000/svg" xmlns:xlink="http://www.w3.org/1999/xlink" width="27.109" height="27.16" viewBox="0 0 27.109 27.16">
  <defs>
    <clipPath id="clip-path">
      <rect id="Rectangle_3782" data-name="Rectangle 3782" width="27.109" height="27.16" fill="#fff"/>
    </clipPath>
  </defs>
  <g id="Group_2213" data-name="Group 2213" clip-path="url(#clip-path)">
    <path id="Path_25138" data-name="Path 25138" d="M351.924,376.4a31.084,31.084,0,0,1,12.126,9.724.413.413,0,0,1-.08.15,15.087,15.087,0,0,1-1.516,1.969,12.62,12.62,0,0,1-2.633,2.2,12.172,12.172,0,0,1-3.41,1.457q-.863.224-1.729.439a6.907,6.907,0,0,1-.924.172,2.152,2.152,0,0,1-.713-.018,1.821,1.821,0,0,1-.321-.1,1.243,1.243,0,0,1-.22-.147,1.954,1.954,0,0,1-.344-.33,5,5,0,0,1-.442-.633c-.244-.4-.462-.815-.681-1.229q-.19-.36-.379-.721a12.458,12.458,0,0,1-1.114-2.977,11.206,11.206,0,0,1-.219-1.316,10.545,10.545,0,0,1-.043-1.656,10.8,10.8,0,0,1,.287-1.971,13.335,13.335,0,0,1,1.1-2.941,17.346,17.346,0,0,1,1.173-1.964c.023-.034.05-.067.085-.113" transform="translate(-339.035 -365.376)" fill="#fff"/>
    <path id="Path_25139" data-name="Path 25139" d="M486.2,230.08c-.043-.051-.071-.082-.1-.115q-.722-.9-1.5-1.75c-.041-.044-.088-.082-.131-.125-.016-.016-.026-.038-.041-.055a3.215,3.215,0,0,0-.35-.363,1.059,1.059,0,0,1-.168-.169,5.765,5.765,0,0,0-.542-.567c-.123-.121-.256-.232-.38-.351-.091-.087-.177-.179-.263-.272s-.172-.138-.247-.223-.173-.142-.253-.22c-.437-.425-.91-.808-1.384-1.19a32.481,32.481,0,0,0-5.557-3.6c-.283-.145-.57-.284-.855-.426-.041-.02-.089-.03-.121-.077.021-.023.041-.049.065-.071a14.194,14.194,0,0,1,3.352-2.318,11.584,11.584,0,0,1,2.992-.987,11.4,11.4,0,0,1,1.2-.155c.337-.026.673-.041,1.011-.039.422,0,.842.021,1.262.065.317.033.632.078.947.122a.893.893,0,0,1,.7.464c.1.176.19.355.278.536a14.257,14.257,0,0,1,1.113,3.174,13.3,13.3,0,0,1,.248,1.609,12.773,12.773,0,0,1,.044,1.6c-.013.4-.049.794-.1,1.19a15.772,15.772,0,0,1-1.153,4.17c-.018.042-.039.083-.067.142" transform="translate(-460.419 -210.651)" fill="#fff"/>
    <path id="Path_25140" data-name="Path 25140" d="M181.722,323.15c-.034.058-.059.1-.086.145a18.831,18.831,0,0,0-1.439,2.81,14.688,14.688,0,0,0-.848,2.878c-.069.378-.119.758-.157,1.141a12.621,12.621,0,0,0-.045,1.684,12.134,12.134,0,0,0,.2,1.8,14.741,14.741,0,0,0,1.686,4.519q.334.594.711,1.162a1.059,1.059,0,0,1,.138.251.106.106,0,0,1-.076.086.16.16,0,0,1-.146-.03.188.188,0,0,0-.113-.048,10.553,10.553,0,0,1-2.907-.777,15.144,15.144,0,0,1-2.186-1.149c-.083-.052-.169-.1-.248-.16a2.589,2.589,0,0,1-.26-.214.907.907,0,0,1-.267-.515c-.041-.245-.079-.49-.111-.736q-.056-.425-.1-.851-.039-.377-.063-.756c-.033-.519-.049-1.039-.046-1.559s.022-1.02.061-1.53c.045-.589.114-1.174.212-1.756a19.532,19.532,0,0,1,1.329-4.516q.286-.665.618-1.308c.251-.487.523-.962.81-1.429.015-.024.029-.048.045-.071a.221.221,0,0,1,.266-.1c.361.1.722.2,1.08.308a19.165,19.165,0,0,1,1.819.667c.034.014.067.031.118.054" transform="translate(-170.226 -312.673)" fill="#fff"/>
    <path id="Path_25141" data-name="Path 25141" d="M313.348,46.524c.038-.057.066-.1.1-.142a14.6,14.6,0,0,1,1.067-1.341c.037-.041.068-.088.1-.132a.412.412,0,0,1,.047-.052,4.078,4.078,0,0,0,.465-.484c.02-.024.054-.036.076-.059.156-.161.333-.3.479-.472a1.178,1.178,0,0,1,.13-.1c.2-.179.406-.361.613-.538a20.486,20.486,0,0,1,3.957-2.659c.208-.107.42-.207.629-.312.225-.112.457-.21.688-.309s.456-.2.688-.283a1.428,1.428,0,0,1,1.172.053,13.69,13.69,0,0,1,1.63.938,13.544,13.544,0,0,1,1.529,1.19c.271.245.538.494.785.764.2.214.388.432.58.649.034.038.064.079.093.115-.025.048-.062.033-.091.032-.248-.008-.5-.019-.744-.026-.487-.014-.975,0-1.461.029a13.648,13.648,0,0,0-3.614.707,13.018,13.018,0,0,0-4.382,2.516c-.229.2-.446.415-.669.622-.082.076-.164.155-.253.222a.765.765,0,0,1-.717.128,1.676,1.676,0,0,1-.16-.054c-.692-.287-1.4-.528-2.11-.773l-.517-.18c-.03-.011-.059-.025-.108-.047" transform="translate(-304.169 -38.379)" fill="#fff"/>
    <path id="Path_25142" data-name="Path 25142" d="M198.591.312a.246.246,0,0,1-.068.136.824.824,0,0,1-.291.239c-.122.059-.247.111-.371.166-.055.025-.113.046-.166.074a22.972,22.972,0,0,0-3.255,2.022,20.023,20.023,0,0,0-1.6,1.33A18.878,18.878,0,0,0,190.6,6.753a4.118,4.118,0,0,1-.432.5,1.772,1.772,0,0,1-.481.337,1.231,1.231,0,0,1-.727.093,2.217,2.217,0,0,1-.38-.1,6.868,6.868,0,0,0-.81-.23c-.049-.011-.1-.026-.154-.041.013-.058.024-.108.036-.157.165-.668.3-1.342.41-2.023q.117-.75.184-1.506c.028-.313.041-.626.063-.939a1.977,1.977,0,0,1,.025-.209.8.8,0,0,1,.305-.505,1.992,1.992,0,0,1,.245-.163A13.8,13.8,0,0,1,192.867.283,13.607,13.607,0,0,1,195.587,0c.346,0,.693.024,1.039.041.374.018.746.065,1.117.12.282.041.564.087.849.151" transform="translate(-182.118 0)" fill="#fff"/>
    <path id="Path_25143" data-name="Path 25143" d="M19.187,299.337a4.239,4.239,0,0,1,1.725.315.29.29,0,0,1-.063.137q-.464.8-.862,1.626a21.216,21.216,0,0,0-1.609,4.723q-.189.887-.308,1.785a24.084,24.084,0,0,0-.2,2.717c-.013.736,0,1.471.044,2.205.009.178.027.355.04.532,0,.051.005.1.008.158-.02,0-.04.006-.045,0a19.144,19.144,0,0,1-1.221-1.488,13.207,13.207,0,0,1-1.871-3.586c-.089-.266-.165-.537-.242-.807a1.451,1.451,0,0,1-.046-.262.65.65,0,0,1,.165-.493c.045-.054.094-.1.141-.157a20.407,20.407,0,0,0,2.922-4.2,25.557,25.557,0,0,0,1.372-3.091c.01-.026.02-.053.031-.078a.394.394,0,0,1,.02-.036" transform="translate(-14.109 -290.559)" fill="#fff"/>
    <path id="Path_25144" data-name="Path 25144" d="M3.665,285.448a.967.967,0,0,1-.023.1,21.157,21.157,0,0,1-1.4,3.108A19.261,19.261,0,0,1,.222,291.6a1.189,1.189,0,0,1-.149.167.214.214,0,0,1-.035-.14,13.767,13.767,0,0,1-.028-1.572,13.988,13.988,0,0,1,.844-4.266,1.824,1.824,0,0,1,.089-.206.425.425,0,0,1,.421-.249c.122,0,.243.013.365.019.332.017.664.034,1,.049.281.013.561.021.842.033.027,0,.055.007.1.013" transform="translate(0 -276.976)" fill="#fff"/>
    <path id="Path_25145" data-name="Path 25145" d="M62.241,117.311a.332.332,0,0,1-.063.008l-2.184-.186a.842.842,0,0,1-.09-.019c.016-.036.027-.065.042-.092a12.812,12.812,0,0,1,1.827-2.519c.077-.081.146-.17.225-.249s.148-.128.222-.192c.188-.162.376-.324.565-.485.031-.026.066-.048.1-.07.039.023.028.053.026.079-.022.242-.039.486-.071.727q-.07.536-.159,1.07a18.476,18.476,0,0,1-.409,1.836c-.007.027-.017.053-.028.091" transform="translate(-58.148 -110.183)" fill="#fff"/>
  </g>
</svg>
