<svg xmlns="http://www.w3.org/2000/svg" width="15.103" height="15.103" viewBox="0 0 15.103 15.103">
  <path id="Icon_awesome-fax" data-name="Icon awesome-fax" d="M1.888,3.776H.944A.944.944,0,0,0,0,4.72v9.44a.944.944,0,0,0,.944.944h.944a.944.944,0,0,0,.944-.944V4.72A.944.944,0,0,0,1.888,3.776Zm12.271.944V2.279a.945.945,0,0,0-.276-.668L12.548.276A.944.944,0,0,0,11.88,0H4.72a.944.944,0,0,0-.944.944V14.159a.944.944,0,0,0,.944.944h9.44a.944.944,0,0,0,.944-.944v-8.5A.944.944,0,0,0,14.159,4.72ZM8.5,12.743a.472.472,0,0,1-.472.472H7.08a.472.472,0,0,1-.472-.472V11.8a.472.472,0,0,1,.472-.472h.944A.472.472,0,0,1,8.5,11.8Zm0-3.776a.472.472,0,0,1-.472.472H7.08a.472.472,0,0,1-.472-.472V8.024a.472.472,0,0,1,.472-.472h.944a.472.472,0,0,1,.472.472Zm3.776,3.776a.472.472,0,0,1-.472.472h-.944a.472.472,0,0,1-.472-.472V11.8a.472.472,0,0,1,.472-.472H11.8a.472.472,0,0,1,.472.472Zm0-3.776a.472.472,0,0,1-.472.472h-.944a.472.472,0,0,1-.472-.472V8.024a.472.472,0,0,1,.472-.472H11.8a.472.472,0,0,1,.472.472Zm.472-3.3H5.192V1.416h6.136V2.36a.472.472,0,0,0,.472.472h.944Z" fill="#fff"/>
</svg>
