<svg xmlns="http://www.w3.org/2000/svg" width="38.343" height="27.31" viewBox="0 0 38.343 27.31">
  <g id="restroom-icon" transform="translate(-388.641 -1470.509)">
    <path id="Path_24855" data-name="Path 24855" d="M9.022,3.018A3.084,3.084,0,0,1,11.716,5.01l1.772,6.244c.354,1.341-1.241,1.915-1.6.575L10.3,6.083H9.377L12.035,16.31H9.518v7.967a.943.943,0,1,1-1.879,0V16.271H6.683v8.005a.96.96,0,1,1-1.914,0V16.31H2.252L4.875,6.083H4.024l-1.6,5.746c-.39,1.264-1.985.728-1.6-.613L2.606,4.972A2.694,2.694,0,0,1,5.087,2.98H9.129Z" transform="translate(400.337 1472.508)" fill="#fff"/>
    <path id="Path_25122" data-name="Path 25122" d="M10.6,3.018A3.084,3.084,0,0,1,13.292,5.01l1.772,6.244c.354,1.341-1.284,1.677-1.6.575l-1.6-5.746h-.922L13.611,16.31H11.094v7.967a.943.943,0,1,1-1.879,0V16.271H8.258v8.005a.96.96,0,1,1-1.914,0V16.31h0L6.45,6.083H5.6V12.1a.9.9,0,0,1-1.769-.276V5.01A3.238,3.238,0,0,1,6.663,2.98H10.7Z" transform="translate(411.87 1472.508)" fill="#fff"/>
    <path id="Path_24856" data-name="Path 24856" d="M4.2,6.143A2.222,2.222,0,1,0,1.98,3.922,2.223,2.223,0,0,0,4.2,6.143" transform="translate(403.392 1468.847)" fill="#fff"/>
    <path id="Path_25123" data-name="Path 25123" d="M4.2,6.143A2.222,2.222,0,1,0,1.98,3.922,2.223,2.223,0,0,0,4.2,6.143" transform="translate(416.5 1468.847)" fill="#fff"/>
    <path id="Path_24857" data-name="Path 24857" d="M9.822,6.133A2.222,2.222,0,1,0,7.6,3.912,2.223,2.223,0,0,0,9.822,6.133" transform="translate(384.178 1468.819)" fill="#fff"/>
    <path id="Path_24858" data-name="Path 24858" d="M9.437,24.037a1.209,1.209,0,1,0,2.416,0V13.618h1V24.037A1.226,1.226,0,0,0,14.046,25.3a1.2,1.2,0,0,0,1.189-1.264v-18h1v6.627c0,1.341,1.672,1.341,1.672,0V5.881A2.859,2.859,0,0,0,15.123,2.97H9.4A2.8,2.8,0,0,0,6.65,5.843v6.818a.862.862,0,1,0,1.71,0V6.034h1v18Z" transform="translate(381.991 1472.479)" fill="#fff"/>
  </g>
</svg>
