<svg xmlns="http://www.w3.org/2000/svg" width="23.261" height="21.721" viewBox="0 0 23.261 21.721">
  <g id="Icons_amenities_BBQ" transform="translate(0)">
    <path id="Path_1" data-name="Path 1" d="M30.53,35.4h8.854c.2,0,.4.021.6.021.443,0,.908-.025,1.079.515.182.572-.147.844-.615,1.094-.168.089-.254.425-.286.661A9.824,9.824,0,0,1,39.1,41.234a9.306,9.306,0,0,1-9.075,5.19,9.311,9.311,0,0,1-8.543-6.173c-.4-.965-.375-.976-1.419-.979-.436,0-.872.014-1.308-.011-.554-.032-.879-.325-.9-.754-.021-.454.35-.8.933-.833.536-.025,1.076.011,1.608-.029.15-.011.293-.182.436-.282A2.12,2.12,0,0,0,20.564,37c-.122-.107-.357-.143-.411-.265A1.432,1.432,0,0,1,20,35.916a.873.873,0,0,1,.568-.461,4.693,4.693,0,0,1,1.1-.061h8.854Zm0,1.63c-2.112,0-4.225-.018-6.337.007-1.948.021-1.987-.407-1.4,1.934a7.923,7.923,0,0,0,8.057,5.862,8.006,8.006,0,0,0,7.585-6.716c.186-1.076.186-1.083-.872-1.083q-3.523-.005-7.042,0Z" transform="translate(-17.858 -35.39)" fill="#fff"/>
    <path id="Path_2" data-name="Path 2" d="M37.579,75.121c1.176,0,2.352-.011,3.528,0A1.511,1.511,0,0,0,42.34,74.5a1.974,1.974,0,0,0,.232-2.588,9.638,9.638,0,0,1-.575-1.5.8.8,0,0,1,1.491-.579c.34.769.651,1.548.919,2.341a1.013,1.013,0,0,0,.983.8,3.111,3.111,0,0,1,2.9,2.96,3.206,3.206,0,0,1-2.4,3.306,3.1,3.1,0,0,1-3.739-1.787,1.028,1.028,0,0,0-1.126-.718c-2.62.025-5.24.007-7.86.014-.836,0-.836.014-1.144.811-.157.407-.279.829-.461,1.222a.853.853,0,0,1-1.133.547A.867.867,0,0,1,30,78.148c.872-2.359,1.766-4.707,2.652-7.059.143-.375.275-.758.443-1.122.254-.554.661-.751,1.119-.561a.8.8,0,0,1,.393,1.112c-.357,1.079-.786,2.138-1.155,3.217-.5,1.462-.8,1.39,1,1.4h3.124Zm9.075.979a1.6,1.6,0,0,0-1.648-1.544A1.553,1.553,0,0,0,43.5,76.222a1.577,1.577,0,0,0,1.576,1.5A1.62,1.62,0,0,0,46.658,76.1Z" transform="translate(-25.608 -57.676)" fill="#fff"/>
    <path id="Path_24877" data-name="Path 24877" d="M24.967,24.524c.2-.02,16.875-.3,16.875-.3V26.8l-2.275,3.886s-2.819,2.356-4.611,2.457a13.833,13.833,0,0,1-5.034-.3c-1.551-.5-3.343-1.51-3.886-2.638s-.322-1.712-1.067-2.96a7.908,7.908,0,0,1-.926-2.718Z" transform="translate(-20.423 -23.088)" fill="#fff"/>
  </g>
</svg>
