<svg xmlns="http://www.w3.org/2000/svg" width="25.377" height="25.381" viewBox="0 0 25.377 25.381">
  <g id="Group_2250" data-name="Group 2250" transform="translate(-1838.26 -607.435)">
    <path id="Icon_awesome-search" data-name="Icon awesome-search" d="M25.032,21.944,20.09,17a1.189,1.189,0,0,0-.843-.347h-.808a10.305,10.305,0,1,0-1.784,1.784v.808A1.189,1.189,0,0,0,17,20.09l4.942,4.942a1.185,1.185,0,0,0,1.68,0l1.4-1.4a1.2,1.2,0,0,0,0-1.685ZM10.31,16.655a6.345,6.345,0,1,1,6.345-6.345A6.341,6.341,0,0,1,10.31,16.655Z" transform="translate(1838.26 607.435)" fill="#202188"/>
  </g>
</svg>
