<svg xmlns="http://www.w3.org/2000/svg" width="26.169" height="26.282" viewBox="0 0 26.169 26.282">
  <g id="water-icon" transform="translate(0)">
    <path id="Path_25672" data-name="Path 25672" d="M24.989,24.271c-.6.6-1.989,2.2-1.989,3.332a2.617,2.617,0,1,0,5.234,0c0-1.134-1.387-2.713-1.989-3.332a.872.872,0,0,0-1.256,0Z" transform="translate(-3.81 -3.938)" fill="#fff"/>
    <path id="Path_25673" data-name="Path 25673" d="M1.872,7A.872.872,0,0,0,1,7.872v6.978a.872.872,0,0,0,.872.872H4.306L2.858,7Z" transform="translate(-1 -1.766)" fill="#fff"/>
    <path id="Path_25674" data-name="Path 25674" d="M25.106,7H19v8.723h1.745V18.34a2.617,2.617,0,0,0,2.617,2.617h3.489a2.617,2.617,0,0,0,2.617-2.617V11.362A4.362,4.362,0,0,0,25.106,7Z" transform="translate(-3.299 -1.766)" fill="#fff"/>
    <path id="Path_25675" data-name="Path 25675" d="M14.594,2.745a.872.872,0,0,0,0-1.745H5.871a.872.872,0,0,0,0,1.745H9.36V4.489H5.871A.872.872,0,0,0,5,5.5L6.743,15.969a.872.872,0,0,0,.872.733h6.978a.872.872,0,0,0,.872-.872V5.362a.872.872,0,0,0-.872-.872H11.1V2.745Z" transform="translate(-1.509 -1)" fill="#fff"/>
  </g>
</svg>
