<svg xmlns="http://www.w3.org/2000/svg" width="31" height="21.797" viewBox="0 0 31 21.797">
  <path id="Icon_awesome-youtube" data-name="Icon awesome-youtube" d="M31.4,7.91a3.9,3.9,0,0,0-2.741-2.758C26.244,4.5,16.55,4.5,16.55,4.5s-9.694,0-12.111.652A3.9,3.9,0,0,0,1.7,7.91a40.862,40.862,0,0,0-.648,7.51A40.862,40.862,0,0,0,1.7,22.93a3.837,3.837,0,0,0,2.741,2.714c2.418.652,12.111.652,12.111.652s9.694,0,12.111-.652A3.837,3.837,0,0,0,31.4,22.93a40.862,40.862,0,0,0,.648-7.51A40.862,40.862,0,0,0,31.4,7.91ZM13.379,20.03V10.811l8.1,4.609-8.1,4.609Z" transform="translate(-1.05 -4.5)" fill="#3d7841"/>
</svg>
