<svg xmlns="http://www.w3.org/2000/svg" width="39.498" height="45.141" viewBox="0 0 39.498 45.141">
  <path id="Icon_awesome-calendar-alt" data-name="Icon awesome-calendar-alt" d="M0,40.909a4.233,4.233,0,0,0,4.232,4.232H35.266A4.233,4.233,0,0,0,39.5,40.909V16.928H0Zm28.213-17.28a1.061,1.061,0,0,1,1.058-1.058H32.8a1.061,1.061,0,0,1,1.058,1.058v3.527A1.061,1.061,0,0,1,32.8,28.213H29.271a1.061,1.061,0,0,1-1.058-1.058Zm0,11.285a1.061,1.061,0,0,1,1.058-1.058H32.8a1.061,1.061,0,0,1,1.058,1.058V38.44A1.061,1.061,0,0,1,32.8,39.5H29.271a1.061,1.061,0,0,1-1.058-1.058ZM16.928,23.628a1.061,1.061,0,0,1,1.058-1.058h3.527a1.061,1.061,0,0,1,1.058,1.058v3.527a1.061,1.061,0,0,1-1.058,1.058H17.986a1.061,1.061,0,0,1-1.058-1.058Zm0,11.285a1.061,1.061,0,0,1,1.058-1.058h3.527a1.061,1.061,0,0,1,1.058,1.058V38.44A1.061,1.061,0,0,1,21.512,39.5H17.986a1.061,1.061,0,0,1-1.058-1.058ZM5.643,23.628A1.061,1.061,0,0,1,6.7,22.57h3.527a1.061,1.061,0,0,1,1.058,1.058v3.527a1.061,1.061,0,0,1-1.058,1.058H6.7a1.061,1.061,0,0,1-1.058-1.058Zm0,11.285A1.061,1.061,0,0,1,6.7,33.855h3.527a1.061,1.061,0,0,1,1.058,1.058V38.44A1.061,1.061,0,0,1,10.227,39.5H6.7A1.061,1.061,0,0,1,5.643,38.44ZM35.266,5.643H31.034V1.411A1.415,1.415,0,0,0,29.624,0H26.8a1.415,1.415,0,0,0-1.411,1.411V5.643H14.106V1.411A1.415,1.415,0,0,0,12.7,0H9.875A1.415,1.415,0,0,0,8.464,1.411V5.643H4.232A4.233,4.233,0,0,0,0,9.875v4.232H39.5V9.875A4.233,4.233,0,0,0,35.266,5.643Z" fill="#9d9d9d"/>
</svg>
