<svg xmlns="http://www.w3.org/2000/svg" width="24.475" height="28.377" viewBox="0 0 24.475 28.377">
  <path id="Link" d="M56.42,32.985v-.061a.806.806,0,0,0-.213-.525c-.018-.02-.029-.041-.045-.061a.815.815,0,0,0-.07-.048.8.8,0,0,0-.52-.2h-.048l-.007,0,0,0-8.062.083a.9.9,0,0,0,.005,1.795l5.923-.066-12.2,12.678a.877.877,0,0,0,1.245,1.236L54.637,35.123l.041,6.12a.9.9,0,0,0,1.8-.007ZM53.381,57.768a.9.9,0,0,1-.893.9L34.68,58.65a.9.9,0,0,1-.893-.9V36.592a.9.9,0,0,1,.893-.9H44.874V33.9H33.787A1.791,1.791,0,0,0,32,35.694V58.65a1.792,1.792,0,0,0,1.787,1.8l19.594.016a1.791,1.791,0,0,0,1.787-1.8V43.982H53.381Z" transform="translate(-32 -32.085)" fill="#327136"/>
</svg>
