<svg xmlns="http://www.w3.org/2000/svg" width="24.382" height="28.269" viewBox="0 0 24.382 28.269">
  <path id="PDF" d="M19.654,19.047c-.383-.381-2.223-.381-2.223-.381a6.348,6.348,0,0,0,1.967.442,1.364,1.364,0,0,0,.283-.017C19.687,19.074,19.654,19.047,19.654,19.047ZM9.4,19.3A27.072,27.072,0,0,1,13.9,18.02c-.033-.017-.206-.149-.206-.149a2.949,2.949,0,0,1-.256-.215,9.835,9.835,0,0,1-2.017-2.778,24.66,24.66,0,0,1-1.311,3.109C9.635,18.87,9.4,19.3,9.4,19.3ZM11.369,8.869a6.014,6.014,0,0,0-.033,2.082c.017-.11.111-.7.111-.7,0-.05.111-.679.111-.679a.524.524,0,0,1,.061-.127.051.051,0,0,1-.017-.033.032.032,0,0,0-.006-.022c-.006-.006-.006-.022-.006-.022a1.013,1.013,0,0,0-.206-.569.058.058,0,0,1-.017.033v.033ZM5.051,23.382a9.479,9.479,0,0,0,2.173-2.491,9.911,9.911,0,0,0-1.389,1.325A5.562,5.562,0,0,0,5.051,23.382ZM14.191,16.9a14.791,14.791,0,0,0,1.334.884,18.1,18.1,0,0,1,1.856-.11c2.334,0,2.812.773,2.812.773a.893.893,0,0,1,.033.823.058.058,0,0,1-.017.033l-.033.033v.017c-.094.6-1.128.6-1.128.6a8.092,8.092,0,0,1-1.828-.315,13.408,13.408,0,0,1-2.061-.834,32.13,32.13,0,0,0-6.223,1.309C6.507,24.249,5.1,24.249,5.1,24.249a1.053,1.053,0,0,1-.445-.11l-.383-.188c-.017-.017-.094-.077-.094-.077-.161-.16-.094-.569-.094-.569a4.313,4.313,0,0,1,.889-1.441,9.294,9.294,0,0,1,2.095-1.524.26.26,0,0,1,.367.094.1.1,0,0,1,.033.061c.828-1.342,1.7-3.109,1.7-3.109a27.036,27.036,0,0,0,1.65-4.136,13.986,13.986,0,0,1-.483-2.518,6.39,6.39,0,0,1,.106-2.01.748.748,0,0,1,.667-.63h.35a.735.735,0,0,1,.556.237c.283.331.144,1.071.144,1.071a.452.452,0,0,1-.061.127.5.5,0,0,1,.017.127v.475a21.955,21.955,0,0,1-.222,3.032A8.464,8.464,0,0,0,14.191,16.9Zm8.163,9.355V10.1H15.747a1.675,1.675,0,0,1-1.078-.442,1.658,1.658,0,0,1-.445-1.071V2.021H2.034V26.259h20.32Zm-6.1-24.105V8.079h5.968a1.808,1.808,0,0,0-.35-.646L16.909,2.5A2.094,2.094,0,0,0,16.259,2.148ZM23.3,6a4.382,4.382,0,0,1,.761,1.2,3.97,3.97,0,0,1,.317,1.386V26.756a1.656,1.656,0,0,1-.445,1.071,1.681,1.681,0,0,1-1.078.442H1.523a1.653,1.653,0,0,1-1.078-.436A1.658,1.658,0,0,1,0,26.762V1.513A1.656,1.656,0,0,1,.445.442,1.681,1.681,0,0,1,1.523,0H15.747a4.405,4.405,0,0,1,1.395.315,4.037,4.037,0,0,1,1.206.757Z" fill="#327136"/>
</svg>
